<svg xmlns="http://www.w3.org/2000/svg" width="1200" height="720" viewBox="0 0 1200 720">
  <rect width="1200" height="720" fill="#f7f4ee"/>
  <text x="60" y="54" font-family="Arial, sans-serif" font-size="28" fill="#222">WorldFarm - Crop_Carrot_Normal_v001 silhouette reference r04</text>
  <text x="60" y="86" font-family="Arial, sans-serif" font-size="16" fill="#555">Stage 2: approved orange body and bottom, cartoon upright stems. Ignore texture and material.</text>

  <g transform="translate(0,0)">
    <text x="250" y="138" font-family="Arial, sans-serif" font-size="22" fill="#222">Front</text>
    <line x1="310" y1="180" x2="310" y2="620" stroke="#8b8b8b" stroke-width="2" stroke-dasharray="8 8"/>
    <path d="M 238 180
             C 222 188, 212 205, 210 224
             C 214 264, 220 294, 228 321
             C 234 365, 241 403, 248 435
             C 256 480, 264 518, 268 541
             C 272 574, 278 604, 284 621
             C 289 646, 331 646, 336 621
             C 342 604, 348 574, 352 541
             C 356 518, 364 480, 372 435
             C 379 403, 386 365, 392 321
             C 400 294, 406 264, 410 224
             C 408 205, 398 188, 382 180
             C 348 166, 272 166, 238 180 Z"
          fill="#ed7a24" stroke="#2c2c2c" stroke-width="4" stroke-linejoin="round"/>
    <g fill="none" stroke-linecap="round">
      <g stroke="#1d5c2c" stroke-width="16">
        <path d="M 310 170 C 310 140, 309 96, 310 42"/>
        <path d="M 310 170 C 309 140, 300 100, 282 54"/>
        <path d="M 310 170 C 312 140, 326 100, 348 58"/>
        <path d="M 310 170 C 306 144, 282 112, 246 82"/>
        <path d="M 310 170 C 318 144, 352 116, 392 92"/>
        <path d="M 310 170 C 309 148, 300 122, 292 92"/>
        <path d="M 310 170 C 314 148, 328 122, 340 92"/>
      </g>
      <g stroke="#35a94b" stroke-width="10">
        <path d="M 310 170 C 310 140, 309 96, 310 42"/>
        <path d="M 310 170 C 309 140, 300 100, 282 54"/>
        <path d="M 310 170 C 312 140, 326 100, 348 58"/>
        <path d="M 310 170 C 306 144, 282 112, 246 82"/>
        <path d="M 310 170 C 318 144, 352 116, 392 92"/>
        <path d="M 310 170 C 309 148, 300 122, 292 92"/>
        <path d="M 310 170 C 314 148, 328 122, 340 92"/>
      </g>
      <g stroke="#78c95f" stroke-width="4">
        <path d="M 314 166 C 314 136, 314 94, 316 50"/>
        <path d="M 315 166 C 318 140, 332 104, 354 66"/>
        <path d="M 305 166 C 298 140, 280 112, 252 90"/>
      </g>
    </g>
    <ellipse cx="310" cy="170" rx="20" ry="9" fill="#1d5c2c" opacity="0.9"/>

    <g font-family="Arial, sans-serif" font-size="14" fill="#333">
      <circle cx="284" cy="620" r="5" fill="#222"/><text x="100" y="624">P0 bottom blunt 26%</text>
      <circle cx="268" cy="541" r="5" fill="#222"/><text x="106" y="545">P1 lower transition 42%</text>
      <circle cx="248" cy="435" r="5" fill="#222"/><text x="112" y="439">P2 middle transition 62%</text>
      <circle cx="228" cy="321" r="5" fill="#222"/><text x="104" y="325">P3 upper transition 82%</text>
      <circle cx="210" cy="224" r="5" fill="#222"/><text x="82" y="228">P4 widest shoulder 100%</text>
      <circle cx="238" cy="180" r="5" fill="#222"/><text x="70" y="184">P5 upright leaf socket 72%</text>
    </g>
  </g>

  <g transform="translate(0,0)">
    <text x="780" y="138" font-family="Arial, sans-serif" font-size="22" fill="#222">Side</text>
    <line x1="830" y1="180" x2="830" y2="620" stroke="#8b8b8b" stroke-width="2" stroke-dasharray="8 8"/>
    <path d="M 767 180
             C 753 188, 744 205, 742 224
             C 746 264, 751 294, 758 321
             C 763 365, 770 403, 776 435
             C 783 480, 790 518, 793 541
             C 797 574, 803 604, 807 621
             C 812 642, 848 642, 853 621
             C 857 604, 863 574, 867 541
             C 870 518, 877 480, 884 435
             C 890 403, 897 365, 902 321
             C 909 294, 914 264, 918 224
             C 916 205, 907 188, 893 180
             C 862 168, 798 168, 767 180 Z"
          fill="#ed7a24" stroke="#2c2c2c" stroke-width="4" stroke-linejoin="round"/>
    <g fill="none" stroke-linecap="round">
      <g stroke="#1d5c2c" stroke-width="16">
        <path d="M 830 170 C 830 140, 829 96, 830 42"/>
        <path d="M 830 170 C 829 140, 820 100, 802 54"/>
        <path d="M 830 170 C 832 140, 846 100, 868 58"/>
        <path d="M 830 170 C 826 144, 802 112, 766 82"/>
        <path d="M 830 170 C 838 144, 872 116, 912 92"/>
        <path d="M 830 170 C 829 148, 820 122, 812 92"/>
      </g>
      <g stroke="#35a94b" stroke-width="10">
        <path d="M 830 170 C 830 140, 829 96, 830 42"/>
        <path d="M 830 170 C 829 140, 820 100, 802 54"/>
        <path d="M 830 170 C 832 140, 846 100, 868 58"/>
        <path d="M 830 170 C 826 144, 802 112, 766 82"/>
        <path d="M 830 170 C 838 144, 872 116, 912 92"/>
        <path d="M 830 170 C 829 148, 820 122, 812 92"/>
      </g>
      <g stroke="#78c95f" stroke-width="4">
        <path d="M 834 166 C 834 136, 834 94, 836 50"/>
        <path d="M 835 166 C 838 140, 852 104, 874 66"/>
        <path d="M 825 166 C 818 140, 800 112, 772 90"/>
      </g>
    </g>
    <ellipse cx="830" cy="170" rx="18" ry="8" fill="#1d5c2c" opacity="0.9"/>
    <g font-family="Arial, sans-serif" font-size="14" fill="#333">
      <text x="960" y="400">Side depth = 88% of front width</text>
      <text x="960" y="424">Axis: straight and symmetric</text>
      <text x="960" y="448">P4 is the widest point</text>
      <text x="960" y="472">P0/P1: no shrink waist</text>
      <text x="960" y="496">Cartoon upright leaf stems</text>
      <text x="960" y="520">Bottom locked as approved</text>
    </g>
  </g>

  <g font-family="Arial, sans-serif" font-size="15" fill="#333">
    <rect x="60" y="646" width="1080" height="44" rx="6" fill="#ffffff" stroke="#d7d0c5"/>
    <text x="78" y="674">Review focus: body and bottom are approved; only review cartoon upright stems. Do not review texture/material yet.</text>
  </g>
</svg>
